<svg xmlns="http://www.w3.org/2000/svg" viewBox="0 0 512 512" fill="none">
  <rect width="512" height="512" fill="#FFFFFF" />
  <g transform="translate(48 62.56) scale(2.08)">
    <path
      d="M180 154.858C180 148.718 175.011 143.716 168.828 143.716L149.016 143.71L159.045 160.252L159.096 160.336L159.145 160.42C161.089 163.773 164.7 166 168.828 166C175.011 166 180 160.999 180 154.858ZM81.1475 123.69L113.496 123.7L95.6289 94.2285L81.1475 123.69ZM105.883 31.1416C105.883 25.0016 100.895 20.0002 94.7119 20C88.5288 20 83.5402 25.0015 83.54 31.1416C83.54 33.0245 84.0012 34.7716 84.8086 36.3057L94.7109 53.4404L104.62 36.2939C105.424 34.7627 105.883 33.0197 105.883 31.1416ZM20 154.819C20.0001 160.96 24.9888 165.961 31.1719 165.961C35.2008 165.961 38.7371 163.839 40.7119 160.619L49.0371 143.682L31.1709 143.678C24.9881 143.678 20 148.679 20 154.819ZM125.883 31.1416C125.883 36.4459 124.548 41.4686 122.187 45.8613L122.113 45.9971L122.036 46.1299L106.331 73.3027L136.889 123.707L168.831 123.716C186.033 123.717 200 137.647 200 154.858C200 172.071 186.03 186 168.828 186C157.343 186 147.317 179.788 141.919 170.582L125.624 143.704L71.3193 143.688L58.3301 170.116L58.1582 170.413C52.779 179.691 42.7111 185.961 31.1719 185.961C13.9696 185.961 0.000107326 172.032 0 154.819C2.86102e-06 137.607 13.9695 123.678 31.1719 123.678L58.8652 123.685L83.3818 73.8066L67.3867 46.1299L67.3096 45.9971L67.2363 45.8604C64.8753 41.4677 63.54 36.4457 63.54 31.1416C63.5402 13.9293 77.5097 0 94.7119 0C111.914 0.000230651 125.883 13.9294 125.883 31.1416Z"
      fill="#100E0E"
    />
  </g>
</svg>
