<svg width="205" height="191" viewBox="0 0 205 191" fill="none" xmlns="http://www.w3.org/2000/svg">
<path d="M180.5 157.358C180.5 152.325 176.409 148.216 171.328 148.216L155.067 148.211L163.255 161.715L163.315 161.815L163.375 161.917C164.976 164.677 167.942 166.5 171.328 166.5C176.409 166.5 180.5 162.391 180.5 157.358ZM86.8584 124.191L112.444 124.198L98.3125 100.889L86.8584 124.191ZM106.383 33.6416C106.383 28.6088 102.293 24.5002 97.2119 24.5C92.1308 24.5 88.0402 28.6087 88.04 33.6416C88.04 35.175 88.4101 36.5891 89.0566 37.833L97.2109 51.9424L105.365 37.833C106.012 36.589 106.383 35.1751 106.383 33.6416ZM24.5 157.319C24.5001 162.352 28.5907 166.461 33.6719 166.461C36.9432 166.461 39.8222 164.76 41.457 162.156L48.3252 148.182L33.6709 148.178C28.59 148.178 24.5 152.287 24.5 157.319ZM130.383 33.6416C130.383 39.2845 128.962 44.6311 126.448 49.3076L126.36 49.4707L111.155 75.7793L140.515 124.207L171.332 124.216C189.635 124.217 204.5 139.04 204.5 157.358C204.5 175.678 189.632 190.5 171.328 190.5C159.132 190.5 148.483 183.916 142.731 174.157L126.997 148.203L75.0645 148.188L62.5947 173.56L62.3877 173.916C56.665 183.786 45.9522 190.461 33.6719 190.461C15.3677 190.461 0.500115 175.639 0.5 157.319C0.500001 139 15.3676 124.177 33.6719 124.177L60.1201 124.184L83.6162 76.3818L68.0625 49.4707L67.9746 49.3076C65.461 44.6311 64.04 39.2844 64.04 33.6416C64.0402 15.322 78.9078 0.5 97.2119 0.5C115.516 0.500235 130.383 15.3222 130.383 33.6416Z" fill="#100E0E" stroke="black"/>
</svg>
